<svg xmlns="http://www.w3.org/2000/svg" width="919.005" height="998.143" viewBox="0 0 919.005 998.143"><path d="M810.72,182.14c-33.075-18.7-85.894,11.374-117.974,67.173l-58.08,101.036c-21.222,42-18.312,92.014,8.6,130.621l1.694,2.436c26.915,38.606,63,74.293,74.946,87.024a65.947,65.947,0,1,1-113.586,36.606c1.885-14.494-2.765-38.1-23.545-61.272s-63.25,20.595-76.984,65.607l-.635,2.067c-13.733,45.011-22.4,84.292-19.808,88.072a74.341,74.341,0,1,1-96.245-23.666q2.441-1.3,4.932-2.395c2.77-1.218,10.623-20.141,17.439-42.491s9.749-30.215,12.348-40.469c3.495-13.78,8.623-42.385,6.072-56.537-2.835-15.73-19.026-16.818-35.865-4.77-10.157,7.269-26.95,21.575-35.153,27.444-15.4,11.023-28.291,32.43-35.111,45.545A65.5,65.5,0,1,1,251.7,509.883c16.505-3.585,72.636-37.874,106.452-62.072,6.056-4.33,16.232-11.536,19.692-15.957,10.128-12.943-.77-23.163-10.579-22.074-28.783,3.2-58.423,7.251-64.024,14.379a58.582,58.582,0,1,1-44.5-94.761c21.051.582,76.438,11.814,122.775,3.6l11.9-2.107c46.34-8.213,101.82-48.551,123.926-90.1,0,0,21.646-38.02,48.343-84.924s24.73-98.278-4.4-114.745L508.544,11.3c-26.612-15.045-70.178-15.071-96.812-.057L48.423,216.062C21.791,231.077,0,268.376,0,298.949V699.194c0,30.574,21.791,67.875,48.423,82.891L411.732,986.9c26.634,15.019,70.2,14.988,96.812-.057L870.61,782.14c26.62-15.046,48.4-52.372,48.4-82.946V298.949c0-30.573-21.775-67.9-48.4-82.947,0,0-26.817-15.159-59.89-33.862" fill="#5fcf80"/></svg>